solid 
 facet normal -1.000000e+00  0.000000e+00  0.000000e+00
   outer loop
     vertex -6.500000e+01 -1.750000e+02  6.501000e+01
     vertex -6.500000e+01  1.750000e+02  6.201000e+01
     vertex -6.500000e+01 -1.750000e+02  6.201000e+01
   endloop
 endfacet
 facet normal -1.000000e+00  0.000000e+00  0.000000e+00
   outer loop
     vertex -6.500000e+01 -1.750000e+02  6.501000e+01
     vertex -6.500000e+01  1.750000e+02  6.501000e+01
     vertex -6.500000e+01  1.750000e+02  6.201000e+01
   endloop
 endfacet
 facet normal  1.000000e+00  0.000000e+00  0.000000e+00
   outer loop
     vertex  6.500000e+01 -1.750000e+02  6.501000e+01
     vertex  6.500000e+01 -1.750000e+02  6.201000e+01
     vertex  6.500000e+01  1.750000e+02  6.201000e+01
   endloop
 endfacet
 facet normal  1.000000e+00 -0.000000e+00  0.000000e+00
   outer loop
     vertex  6.500000e+01 -1.750000e+02  6.501000e+01
     vertex  6.500000e+01  1.750000e+02  6.201000e+01
     vertex  6.500000e+01  1.750000e+02  6.501000e+01
   endloop
 endfacet
 facet normal  0.000000e+00 -1.000000e+00 -0.000000e+00
   outer loop
     vertex  6.500000e+01 -1.750000e+02  6.501000e+01
     vertex -6.500000e+01 -1.750000e+02  6.201000e+01
     vertex  6.500000e+01 -1.750000e+02  6.201000e+01
   endloop
 endfacet
 facet normal -0.000000e+00 -1.000000e+00  0.000000e+00
   outer loop
     vertex  6.500000e+01 -1.750000e+02  6.501000e+01
     vertex -6.500000e+01 -1.750000e+02  6.501000e+01
     vertex -6.500000e+01 -1.750000e+02  6.201000e+01
   endloop
 endfacet
 facet normal  0.000000e+00  1.000000e+00  0.000000e+00
   outer loop
     vertex  6.500000e+01  1.750000e+02  6.501000e+01
     vertex  6.500000e+01  1.750000e+02  6.201000e+01
     vertex -6.500000e+01  1.750000e+02  6.201000e+01
   endloop
 endfacet
 facet normal  0.000000e+00  1.000000e+00  0.000000e+00
   outer loop
     vertex  6.500000e+01  1.750000e+02  6.501000e+01
     vertex -6.500000e+01  1.750000e+02  6.201000e+01
     vertex -6.500000e+01  1.750000e+02  6.501000e+01
   endloop
 endfacet
 facet normal -0.000000e+00  0.000000e+00 -1.000000e+00
   outer loop
     vertex  6.500000e+01  1.750000e+02  6.201000e+01
     vertex -6.500000e+01 -1.750000e+02  6.201000e+01
     vertex -6.500000e+01  1.750000e+02  6.201000e+01
   endloop
 endfacet
 facet normal  0.000000e+00 -0.000000e+00 -1.000000e+00
   outer loop
     vertex  6.500000e+01  1.750000e+02  6.201000e+01
     vertex  6.500000e+01 -1.750000e+02  6.201000e+01
     vertex -6.500000e+01 -1.750000e+02  6.201000e+01
   endloop
 endfacet
 facet normal  0.000000e+00  0.000000e+00  1.000000e+00
   outer loop
     vertex  6.500000e+01  1.750000e+02  6.501000e+01
     vertex -6.500000e+01  1.750000e+02  6.501000e+01
     vertex -6.500000e+01 -1.750000e+02  6.501000e+01
   endloop
 endfacet
 facet normal  0.000000e+00  0.000000e+00  1.000000e+00
   outer loop
     vertex  6.500000e+01  1.750000e+02  6.501000e+01
     vertex -6.500000e+01 -1.750000e+02  6.501000e+01
     vertex  6.500000e+01 -1.750000e+02  6.501000e+01
   endloop
 endfacet
endsolid
